<?xml version="1.0" encoding="UTF-8"?>
<svg id="Layer_1" xmlns="http://www.w3.org/2000/svg" version="1.1" viewBox="0 0 640 640">
  <!-- Generator: Adobe Illustrator 30.2.1, SVG Export Plug-In . SVG Version: 2.1.1 Build 1)  -->
  <path d="M141.94,130c-31.02,0-56.18,27.21-56.18,60.76,0,.89,0,1.68.09,2.57h-.09v253.33c0,34.93,26.26,63.33,58.56,63.33h351.36c32.3,0,58.56-28.4,58.56-63.33v-253.33h-.09c0-.89.09-1.68.09-2.57,0-33.55-25.16-60.76-56.18-60.76H141.94ZM510.32,256.96v189.7c0,8.71-6.59,15.83-14.64,15.83H144.32c-8.05,0-14.64-7.13-14.64-15.83v-189.7l141.64,116.18c28.73,23.65,68.53,23.65,97.36,0l141.64-116.18ZM129.68,190.76c0-7.32,5.49-13.26,12.26-13.26h356.11c6.77,0,12.26,5.94,12.26,13.26,0,4.16-1.83,8.11-4.85,10.59l-163.33,133.99c-13.08,10.69-31.2,10.69-44.29,0l-163.33-133.99c-3.02-2.47-4.85-6.43-4.85-10.59Z"/>
</svg>