<?xml version="1.0" encoding="UTF-8"?>
<svg id="Layer_1" xmlns="http://www.w3.org/2000/svg" version="1.1" viewBox="0 0 640 640">
  <!-- Generator: Adobe Illustrator 30.2.1, SVG Export Plug-In . SVG Version: 2.1.1 Build 1)  -->
  <defs>
    <style>
      .st0 {
        stroke: #000;
        stroke-miterlimit: 10;
        stroke-width: 10px;
      }
    </style>
  </defs>
  <path class="st0" d="M320.05,197.97c-67.44-.21-122.25,54.38-122.46,121.82s54.38,122.25,121.82,122.46c67.44.21,122.25-54.38,122.46-121.82.21-67.44-54.38-122.25-121.82-122.46ZM319.42,240.87c43.76-.21,79.34,35.16,79.55,78.91.21,43.76-35.16,79.34-78.91,79.55-43.76.21-79.34-35.16-79.55-78.91-.21-43.76,35.16-79.34,78.91-79.55ZM418.61,192.97c0-15.72,12.75-28.46,28.46-28.46s28.46,12.75,28.46,28.46-12.75,28.46-28.46,28.46-28.46-12.75-28.46-28.46ZM556.37,221.86c-1.81-38.13-10.51-71.9-38.45-99.73-27.83-27.83-61.6-36.54-99.73-38.45-39.3-2.23-157.08-2.23-196.38,0-38.02,1.81-71.8,10.51-99.73,38.34-27.93,27.83-36.54,61.6-38.45,99.73-2.23,39.3-2.23,157.08,0,196.38,1.81,38.13,10.51,71.9,38.45,99.73,27.93,27.83,61.6,36.54,99.73,38.45,39.3,2.23,157.08,2.23,196.38,0,38.13-1.81,71.9-10.51,99.73-38.45,27.83-27.83,36.54-61.6,38.45-99.73,2.23-39.3,2.23-156.98,0-196.27ZM505.6,460.3c-8.28,20.82-24.32,36.85-45.24,45.24-31.33,12.43-105.68,9.56-140.3,9.56s-109.08,2.76-140.3-9.56c-20.82-8.28-36.85-24.32-45.24-45.24-12.43-31.33-9.56-105.68-9.56-140.3s-2.76-109.08,9.56-140.3c8.28-20.82,24.32-36.85,45.24-45.24,31.33-12.43,105.68-9.56,140.3-9.56s109.08-2.76,140.3,9.56c20.82,8.28,36.85,24.32,45.24,45.24,12.43,31.33,9.56,105.68,9.56,140.3s2.87,109.08-9.56,140.3Z"/>
</svg>