<?xml version="1.0" encoding="UTF-8"?>
<svg xmlns="http://www.w3.org/2000/svg" version="1.1" viewBox="0 0 517.34 180.51">
  <!-- Generator: Adobe Illustrator 29.8.7, SVG Export Plug-In . SVG Version: 2.1.1 Build 1)  -->
  <defs>
    <style>
      .st0 {
        font-family: DistantGalaxy, 'INFCO Y+ Distant Galaxy';
      }

      .st0, .st1, .st2 {
        font-size: 121.47px;
      }

      .st1 {
        font-family: GoodTimes, GoodTimes;
      }

      .st1, .st3 {
        stroke-width: 14px;
      }

      .st1, .st3, .st4, .st2, .st5 {
        stroke: #000;
        stroke-miterlimit: 10;
      }

      .st6 {
        fill: #81776b;
      }

      .st2 {
        font-family: Gadugi, Gadugi;
        stroke-width: 16px;
      }

      .st7 {
        display: none;
      }

      .st5 {
        fill: none;
        stroke-width: 3px;
      }
    </style>
  </defs>
  <g id="Layer_1" class="st7">
    <text class="st0" transform="translate(-113.68 89.47)"><tspan x="0" y="0">GDA</tspan></text>
    <g>
      <path class="st3" d="M-26.45,194.03h-5.47c-.49-.97-.73-5.34-.85-13.61-3.04,5.83-9.72,14.58-27.45,14.58-24.42,0-36.93-18.59-36.93-42.76,0-25.39,13.36-44.46,38.26-44.46,18.34,0,30.49,9.6,33.16,25.27h-6.56c-3.64-12.03-12.03-19.19-26.85-19.19-21.26,0-30.98,16.52-30.98,38.02,0,19.44,9.35,37.05,30.13,37.05s27.21-13.85,27.21-32.68v-.97h-27.45v-6.07H-26.45v44.82Z"/>
      <path class="st3" d="M-4.47,109h28.18c23.32,0,39.48,16.28,39.48,41.79s-15.79,43.25-39.6,43.25H-4.47v-85.03ZM2.09,187.95h20.53c22.47,0,33.53-15.79,33.53-36.81,0-18.71-9.96-36.08-33.53-36.08H2.09v72.89Z"/>
      <path class="st3" d="M89.79,164.63l-10.81,29.4h-6.68l31.22-85.03h7.77l32.56,85.03h-7.17l-11.05-29.4h-35.83ZM123.44,158.56c-9.48-25.27-14.33-37.41-16.03-43.12h-.12c-2.06,6.44-7.53,21.5-15.18,43.12h31.34Z"/>
    </g>
    <text class="st2" transform="translate(-109.4 304.57)"><tspan x="0" y="0">GDA</tspan></text>
    <text class="st1" transform="translate(-122.65 426.35)"><tspan x="0" y="0">GDA</tspan></text>
  </g>
  <g id="Layer_3" class="st7">
    <rect class="st6" x="-102.99" y="-75.67" width="663" height="572"/>
  </g>
  <g id="Layer_2">
    <g>
      <path d="M74.73,67c6.07-3.65,12.15-3.89,15.16-3.79h87.85V21.91h-87.85c-4.47-.06-31.47.05-51.36,21.64-16.75,18.19-17.46,39.68-17.58,46.54-.15,8.33.79,36.03,23.44,55.51,18.07,15.54,38.92,16.33,45.16,16.34h46.89v.21h41.3v-88.53h-97.16v41.3h55.86v5.73h-46.89c-3.05.39-8.74.65-14.48-2.28-10.65-5.43-14.21-18.12-13.79-27.24.08-1.79,1.01-16.66,13.45-24.13Z"/>
      <path d="M309.85,40.46c-17.45-16.67-38.41-18.29-44.13-18.55h-82.93v140.25h82.93c5.57-.39,27.44-2.57,45.16-20.69,17.95-18.35,19.7-40.84,19.65-50.33-.03-6.5-.56-31.46-20.69-50.68ZM288.82,103.04h-24.3v24.3h-25.53v-24.3h-24.3v-25.53h24.3v-24.3h25.53v24.3h24.3v25.53Z"/>
      <path d="M417.42,21.91c-34.79.03-69.58.07-104.38.1,17.85,11.34,35.71,22.68,53.56,34.02-21.36,35.15-42.72,70.29-64.08,105.44,16.69.11,33.38.23,50.08.34,6.58-11.29,13.16-22.58,19.74-33.87,18.79.03,37.58.06,56.37.09,6.67,11.32,13.34,22.65,20.02,33.97,16.46-.18,32.91-.35,49.37-.53-26.89-46.52-53.78-93.04-80.67-139.56ZM402.16,46.07c6.32,0,11.44,5.12,11.44,11.44s-5.12,11.44-11.44,11.44-11.44-5.12-11.44-11.44,5.12-11.44,11.44-11.44ZM381.02,90.09c-6.32,0-11.44-5.12-11.44-11.44s5.12-11.44,11.44-11.44,11.44,5.12,11.44,11.44-5.12,11.44-11.44,11.44ZM402.16,111.23c-6.32,0-11.44-5.12-11.44-11.44s5.12-11.44,11.44-11.44,11.44,5.12,11.44,11.44-5.12,11.44-11.44,11.44ZM423.31,90.09c-6.32,0-11.44-5.12-11.44-11.44s5.12-11.44,11.44-11.44,11.44,5.12,11.44,11.44-5.12,11.44-11.44,11.44Z"/>
    </g>
  </g>
  <g id="Layer_4">
    <g>
      <path d="M402.16,113.36c-7.48,0-13.56-6.08-13.56-13.56s6.08-13.56,13.56-13.56,13.56,6.08,13.56,13.56-6.08,13.56-13.56,13.56ZM402.16,90.48c-5.13,0-9.31,4.18-9.31,9.31s4.18,9.31,9.31,9.31,9.31-4.18,9.31-9.31-4.18-9.31-9.31-9.31Z"/>
      <path d="M402.16,86.86c7.13,0,12.94,5.8,12.94,12.94s-5.8,12.94-12.94,12.94-12.94-5.8-12.94-12.94,5.8-12.94,12.94-12.94M402.16,109.73c5.48,0,9.94-4.46,9.94-9.94s-4.46-9.94-9.94-9.94-9.94,4.46-9.94,9.94,4.46,9.94,9.94,9.94M402.16,85.61c-7.82,0-14.19,6.36-14.19,14.19s6.36,14.19,14.19,14.19,14.19-6.36,14.19-14.19-6.36-14.19-14.19-14.19h0ZM402.16,108.48c-4.79,0-8.69-3.9-8.69-8.69s3.9-8.69,8.69-8.69,8.69,3.9,8.69,8.69-3.9,8.69-8.69,8.69h0Z"/>
    </g>
    <g>
      <path d="M402.16,71.07c-7.48,0-13.56-6.08-13.56-13.56s6.08-13.56,13.56-13.56,13.56,6.08,13.56,13.56-6.08,13.56-13.56,13.56ZM402.16,48.19c-5.13,0-9.31,4.18-9.31,9.31s4.18,9.31,9.31,9.31,9.31-4.18,9.31-9.31-4.18-9.31-9.31-9.31Z"/>
      <path d="M402.16,44.57c7.13,0,12.94,5.8,12.94,12.94s-5.8,12.94-12.94,12.94-12.94-5.8-12.94-12.94,5.8-12.94,12.94-12.94M402.16,67.44c5.48,0,9.94-4.46,9.94-9.94s-4.46-9.94-9.94-9.94-9.94,4.46-9.94,9.94,4.46,9.94,9.94,9.94M402.16,43.32c-7.82,0-14.19,6.36-14.19,14.19s6.36,14.19,14.19,14.19,14.19-6.36,14.19-14.19-6.36-14.19-14.19-14.19h0ZM402.16,66.19c-4.79,0-8.69-3.9-8.69-8.69s3.9-8.69,8.69-8.69,8.69,3.9,8.69,8.69-3.9,8.69-8.69,8.69h0Z"/>
    </g>
    <circle class="st5" cx="402.16" cy="57.5" r="11.44"/>
    <g>
      <path d="M423.31,92.21c-7.48,0-13.56-6.08-13.56-13.56s6.08-13.56,13.56-13.56,13.56,6.08,13.56,13.56-6.08,13.56-13.56,13.56ZM423.31,69.34c-5.13,0-9.31,4.18-9.31,9.31s4.18,9.31,9.31,9.31,9.31-4.18,9.31-9.31-4.18-9.31-9.31-9.31Z"/>
      <path d="M423.31,65.71c7.13,0,12.94,5.8,12.94,12.94s-5.8,12.94-12.94,12.94-12.94-5.8-12.94-12.94,5.8-12.94,12.94-12.94M423.31,88.59c5.48,0,9.94-4.46,9.94-9.94s-4.46-9.94-9.94-9.94-9.94,4.46-9.94,9.94,4.46,9.94,9.94,9.94M423.31,64.46c-7.82,0-14.19,6.36-14.19,14.19s6.36,14.19,14.19,14.19,14.19-6.36,14.19-14.19-6.36-14.19-14.19-14.19h0ZM423.31,87.34c-4.79,0-8.69-3.9-8.69-8.69s3.9-8.69,8.69-8.69,8.69,3.9,8.69,8.69-3.9,8.69-8.69,8.69h0Z"/>
    </g>
    <path class="st5" d="M434.74,78.65c0,6.32-5.12,11.44-11.44,11.44s-11.44-5.12-11.44-11.44,5.12-11.44,11.44-11.44,11.44,5.12,11.44,11.44Z"/>
    <g>
      <path d="M381.02,92.21c-7.48,0-13.56-6.08-13.56-13.56s6.08-13.56,13.56-13.56,13.56,6.08,13.56,13.56-6.08,13.56-13.56,13.56ZM381.02,69.34c-5.13,0-9.31,4.18-9.31,9.31s4.18,9.31,9.31,9.31,9.31-4.18,9.31-9.31-4.18-9.31-9.31-9.31Z"/>
      <path d="M381.02,65.71c7.13,0,12.94,5.8,12.94,12.94s-5.8,12.94-12.94,12.94-12.94-5.8-12.94-12.94,5.8-12.94,12.94-12.94M381.02,88.59c5.48,0,9.94-4.46,9.94-9.94s-4.46-9.94-9.94-9.94-9.94,4.46-9.94,9.94,4.46,9.94,9.94,9.94M381.02,64.46c-7.82,0-14.19,6.36-14.19,14.19s6.36,14.19,14.19,14.19,14.19-6.36,14.19-14.19-6.36-14.19-14.19-14.19h0ZM381.02,87.34c-4.79,0-8.69-3.9-8.69-8.69s3.9-8.69,8.69-8.69,8.69,3.9,8.69,8.69-3.9,8.69-8.69,8.69h0Z"/>
    </g>
    <circle class="st5" cx="381.02" cy="78.65" r="11.44"/>
  </g>
  <g id="Layer_5">
    <g>
      <polygon points="251.45 57.54 243.08 72.04 259.82 72.04 251.45 57.54"/>
      <polygon points="251.45 123.67 243.08 109.17 259.82 109.17 251.45 123.67"/>
    </g>
    <g>
      <polygon class="st4" points="218.39 90.61 232.89 98.98 232.89 82.24 218.39 90.61"/>
      <polygon class="st4" points="284.51 90.61 270.01 98.98 270.01 82.24 284.51 90.61"/>
    </g>
  </g>
</svg>