<?xml version="1.0" encoding="UTF-8"?>
<svg id="Layer_1" xmlns="http://www.w3.org/2000/svg" version="1.1" viewBox="0 0 640 640">
  <!-- Generator: Adobe Illustrator 29.8.5, SVG Export Plug-In . SVG Version: 2.1.1 Build 2)  -->
  <path d="M376.25,95c-15.56,0-28.12,12.57-28.12,28.12s12.57,28.12,28.12,28.12h72.69l-177.01,177.01c-10.99,10.99-10.99,28.83,0,39.81,10.99,10.99,28.83,10.99,39.81,0l177.01-177.01v72.69c0,15.56,12.57,28.12,28.12,28.12s28.12-12.57,28.12-28.12V123.12c0-15.56-12.57-28.12-28.12-28.12h-140.62ZM165.31,179.38c-38.85,0-70.31,31.46-70.31,70.31v225c0,38.85,31.46,70.31,70.31,70.31h225c38.85,0,70.31-31.46,70.31-70.31v-70.31c0-15.56-12.57-28.12-28.12-28.12s-28.12,12.57-28.12,28.12v70.31c0,7.73-6.33,14.06-14.06,14.06h-225c-7.73,0-14.06-6.33-14.06-14.06v-225c0-7.73,6.33-14.06,14.06-14.06h70.31c15.56,0,28.12-12.57,28.12-28.12s-12.57-28.12-28.12-28.12h-70.31Z"/>
</svg>