<?xml version="1.0" encoding="UTF-8"?>
<svg id="Layer_1" xmlns="http://www.w3.org/2000/svg" version="1.1" viewBox="0 0 640 640">
  <!-- Generator: Adobe Illustrator 30.2.1, SVG Export Plug-In . SVG Version: 2.1.1 Build 1)  -->
  <path d="M239.77,464.24c0,1.95-2.25,3.52-5.08,3.52-3.22.29-5.47-1.27-5.47-3.52,0-1.95,2.25-3.52,5.08-3.52,2.93-.29,5.47,1.27,5.47,3.52ZM209.37,459.84c-.68,1.95,1.27,4.2,4.2,4.79,2.54.98,5.47,0,6.06-1.95.59-1.95-1.27-4.2-4.2-5.08-2.54-.68-5.37.29-6.06,2.25ZM252.57,458.18c-2.83.68-4.79,2.54-4.5,4.79.29,1.95,2.83,3.22,5.77,2.54,2.83-.68,4.79-2.54,4.5-4.5-.29-1.86-2.93-3.13-5.77-2.83ZM316.87,83.7c-135.55,0-239.23,102.9-239.23,238.45,0,108.38,68.21,201.12,165.64,233.76,12.51,2.25,16.91-5.47,16.91-11.82s-.29-39.48-.29-60c0,0-68.41,14.66-82.77-29.12,0,0-11.14-28.44-27.17-35.77,0,0-22.38-15.34,1.56-15.05,0,0,24.33,1.95,37.72,25.21,21.4,37.72,57.27,26.87,71.24,20.42,2.25-15.64,8.6-26.48,15.64-32.93-54.63-6.06-109.75-13.97-109.75-107.99,0-26.87,7.43-40.36,23.06-57.56-2.54-6.35-10.85-32.54,2.54-66.36,20.42-6.35,67.43,26.39,67.43,26.39,19.55-5.47,40.56-8.31,61.37-8.31s41.83,2.83,61.37,8.31c0,0,47.01-32.84,67.43-26.39,13.39,33.91,5.08,60,2.54,66.36,15.64,17.3,25.21,30.78,25.21,57.56,0,94.31-57.56,101.83-112.19,107.99,8.99,7.72,16.61,22.38,16.61,45.34,0,32.93-.29,73.68-.29,81.7,0,6.35,4.5,14.07,16.91,11.82,97.73-32.44,163.98-125.19,163.98-233.56,0-135.55-109.94-238.45-245.49-238.45ZM172.63,420.75c-1.27.98-.98,3.22.68,5.08,1.56,1.56,3.81,2.25,5.08.98,1.27-.98.98-3.22-.68-5.08-1.56-1.56-3.81-2.25-5.08-.98ZM162.08,412.84c-.68,1.27.29,2.83,2.25,3.81,1.56.98,3.52.68,4.2-.68.68-1.27-.29-2.83-2.25-3.81-1.95-.59-3.52-.29-4.2.68ZM193.74,447.63c-1.56,1.27-.98,4.2,1.27,6.06,2.25,2.25,5.08,2.54,6.35.98,1.27-1.27.68-4.2-1.27-6.06-2.15-2.25-5.08-2.54-6.35-.98ZM182.6,433.26c-1.56.98-1.56,3.52,0,5.77,1.56,2.25,4.2,3.22,5.47,2.25,1.56-1.27,1.56-3.81,0-6.06-1.37-2.25-3.91-3.22-5.47-1.95Z"/>
</svg>