<?xml version="1.0" encoding="UTF-8"?>
<svg id="Layer_1" xmlns="http://www.w3.org/2000/svg" version="1.1" viewBox="0 0 640 640">
  <!-- Generator: Adobe Illustrator 30.2.1, SVG Export Plug-In . SVG Version: 2.1.1 Build 1)  -->
  <path d="M208.17,522.5h-83.98V252.11h83.98v270.39ZM166.14,215.22c-26.85,0-48.64-22.24-48.64-49.09,0-12.93,5.15-25.22,14.28-34.35,9.13-9.13,21.52-14.28,34.35-14.28s25.22,5.15,34.35,14.28c9.13,9.13,14.28,21.52,14.28,34.35,0,26.85-21.79,49.09-48.64,49.09ZM522.41,522.5h-83.8v-131.63c0-31.37-.63-71.6-43.66-71.6s-50.35,34.08-50.35,69.34v133.89h-83.89V252.11h80.55v36.88h1.18c11.21-21.24,38.6-43.66,79.46-43.66,84.98,0,100.62,55.96,100.62,128.64v148.53h-.09Z"/>
</svg>