<?xml version="1.0" encoding="UTF-8"?>
<svg id="Layer_1" xmlns="http://www.w3.org/2000/svg" version="1.1" viewBox="0 0 640 640">
  <!-- Generator: Adobe Illustrator 30.2.1, SVG Export Plug-In . SVG Version: 2.1.1 Build 1)  -->
  <path d="M142.06,106.16c-20.97,12.47-62.34,59.92-62.73,72.39v20.59c0,26.19,24.45,49.1,46.59,49.1,26.68,0,48.81-22.04,48.81-48.33,0,26.19,21.46,48.33,48.13,48.33s47.36-22.04,47.36-48.33c0,26.19,22.81,48.33,49.49,48.33h.48c26.68,0,49.49-22.04,49.49-48.33,0,26.19,20.78,48.33,47.36,48.33s48.13-22.04,48.13-48.33c0,26.19,22.23,48.33,48.81,48.33,22.23,0,46.68-23,46.68-49.1v-20.59c-.39-12.47-41.75-60.02-62.73-72.49-65.14-2.22-110.38-2.61-177.84-2.61s-159.48,1.06-178.03,2.71ZM269.93,236.06c-21.26,37.11-75.29,37.4-96.46.19-12.76,22.33-41.75,31.03-54.13,26.77-3.77,38.85-13.24,229.16,17.11,260.19,77.32,18.07,291.99,17.49,367.09,0,30.54-31.22,20.59-224.23,17.11-260.19-12.47,4.25-41.46-4.45-54.13-26.77-21.26,37.21-75.2,36.82-96.46-.19-6.86,12.08-22.23,27.93-50.07,27.93-10.05.29-20.1-2.13-28.9-7.06-8.8-4.93-16.14-12.18-21.17-20.88h0ZM229.73,288.06c15.95,0,30.06,0,47.55,19.14,28.32-2.9,56.93-2.9,85.25,0,17.59-19.04,31.7-19.04,47.55-19.04,50.55,0,63.02,74.91,81.09,139.57,16.72,60.12-5.32,61.57-32.86,61.57-40.69-1.55-63.31-31.12-63.31-60.7-37.98,6.19-98.49,8.51-150.39,0,0,29.58-22.52,59.15-63.31,60.7-27.45-.1-49.49-1.55-32.77-61.57,18.07-64.76,30.54-139.57,81.09-139.57v-.1h.1ZM320,334.26s-42.91,39.43-50.65,53.35l28.03-1.16v24.45c0,1.45,20.59.19,22.52.19,11.21.48,22.52.97,22.52-.19v-24.45l28.03,1.16c-7.73-14.01-50.65-53.35-50.65-53.35h.19Z"/>
</svg>